<svg width="44" height="44" viewBox="0 0 44 44" fill="none" xmlns="http://www.w3.org/2000/svg">
<path d="M34.4444 36H9.55556V16.4444H34.4444M29.1111 4V7.55556H14.8889V4H11.3333V7.55556H9.55556C7.58222 7.55556 6 9.13778 6 11.1111V36C6 36.943 6.3746 37.8474 7.0414 38.5142C7.70819 39.181 8.61256 39.5556 9.55556 39.5556H34.4444C35.3874 39.5556 36.2918 39.181 36.9586 38.5142C37.6254 37.8474 38 36.943 38 36V11.1111C38 10.1681 37.6254 9.26375 36.9586 8.59695C36.2918 7.93016 35.3874 7.55556 34.4444 7.55556H32.6667V4M30.8889 23.5556H22V32.4444H30.8889V23.5556Z" fill="white"/>
</svg>
