<svg width="44" height="44" viewBox="0 0 44 44" fill="none" xmlns="http://www.w3.org/2000/svg">
<path d="M12.8333 3.66669H14.6667C15.1529 3.66669 15.6192 3.85984 15.963 4.20366C16.3068 4.54747 16.5 5.01379 16.5 5.50002V7.33335H25.6667V5.50002C25.6667 5.01379 25.8598 4.54747 26.2036 4.20366C26.5475 3.85984 27.0138 3.66669 27.5 3.66669H29.3333C29.8196 3.66669 30.2859 3.85984 30.6297 4.20366C30.9735 4.54747 31.1667 5.01379 31.1667 5.50002V7.33335C32.6254 7.33335 34.0243 7.91282 35.0558 8.94427C36.0872 9.97572 36.6667 11.3747 36.6667 12.8334V33C36.6667 34.4587 36.0872 35.8577 35.0558 36.8891C34.0243 37.9206 32.6254 38.5 31.1667 38.5H11C9.54131 38.5 8.14236 37.9206 7.11091 36.8891C6.07946 35.8577 5.5 34.4587 5.5 33V12.8334C5.5 11.3747 6.07946 9.97572 7.11091 8.94427C8.14236 7.91282 9.54131 7.33335 11 7.33335V5.50002C11 5.01379 11.1932 4.54747 11.537 4.20366C11.8808 3.85984 12.3471 3.66669 12.8333 3.66669ZM27.5 7.33335H29.3333V5.50002H27.5V7.33335ZM14.6667 7.33335V5.50002H12.8333V7.33335H14.6667ZM11 9.16669C10.0275 9.16669 9.09491 9.553 8.40727 10.2406C7.71964 10.9283 7.33333 11.8609 7.33333 12.8334V14.6667H34.8333V12.8334C34.8333 11.8609 34.447 10.9283 33.7594 10.2406C33.0718 9.553 32.1391 9.16669 31.1667 9.16669H11ZM7.33333 33C7.33333 33.9725 7.71964 34.9051 8.40727 35.5927C9.09491 36.2804 10.0275 36.6667 11 36.6667H31.1667C32.1391 36.6667 33.0718 36.2804 33.7594 35.5927C34.447 34.9051 34.8333 33.9725 34.8333 33V16.5H7.33333V33ZM22 23.8334H31.1667V33H22V23.8334ZM23.8333 25.6667V31.1667H29.3333V25.6667H23.8333Z" fill="white"/>
</svg>
