<svg width="18" height="18" viewBox="0 0 18 18" fill="none" xmlns="http://www.w3.org/2000/svg">
<path d="M9 18C6.61305 18 4.32387 17.0518 2.63604 15.364C0.948212 13.6761 0 11.3869 0 9C0 6.61305 0.948212 4.32387 2.63604 2.63604C4.32387 0.948212 6.61305 0 9 0C11.3869 0 13.6761 0.948212 15.364 2.63604C17.0518 4.32387 18 6.61305 18 9C18 11.3869 17.0518 13.6761 15.364 15.364C13.6761 17.0518 11.3869 18 9 18ZM3.96 14.139C5.44603 13.1272 7.2022 12.5861 9 12.5861C10.7978 12.5861 12.554 13.1272 14.04 14.139C15.0613 13.1379 15.7614 11.8553 16.0509 10.4547C16.3404 9.0542 16.2063 7.59916 15.6656 6.27515C15.1249 4.95113 14.2022 3.81813 13.0151 3.02061C11.8279 2.22309 10.4302 1.79717 9 1.79717C7.56984 1.79717 6.17208 2.22309 4.98494 3.02061C3.7978 3.81813 2.87506 4.95113 2.33437 6.27515C1.79369 7.59916 1.65956 9.0542 1.94908 10.4547C2.2386 11.8553 2.93866 13.1379 3.96 14.139ZM9.468 7.263L12.186 4.545L13.455 5.814L10.737 8.532C10.8403 8.91482 10.8143 9.32103 10.663 9.68755C10.5117 10.0541 10.2437 10.3604 9.90048 10.5589C9.55726 10.7575 9.15809 10.8371 8.76496 10.7856C8.37182 10.734 8.00672 10.554 7.72634 10.2737C7.44597 9.99328 7.26602 9.62818 7.21444 9.23504C7.16285 8.84191 7.24252 8.44274 7.44107 8.09952C7.63961 7.75631 7.94593 7.48826 8.31245 7.33699C8.67897 7.18573 9.08518 7.15972 9.468 7.263Z" fill="#1E1E1E"/>
</svg>
