<svg width="20" height="20" viewBox="0 0 20 20" fill="none" xmlns="http://www.w3.org/2000/svg">
<path d="M10.0001 14.5832C11.9417 14.5832 13.5834 13.3665 14.2584 11.6665H5.74175C6.40841 13.3665 8.05841 14.5832 10.0001 14.5832ZM7.08341 9.1665C7.41494 9.1665 7.73288 9.03481 7.9673 8.80039C8.20172 8.56597 8.33341 8.24802 8.33341 7.9165C8.33341 7.58498 8.20172 7.26704 7.9673 7.03262C7.73288 6.7982 7.41494 6.6665 7.08341 6.6665C6.75189 6.6665 6.43395 6.7982 6.19953 7.03262C5.96511 7.26704 5.83341 7.58498 5.83341 7.9165C5.83341 8.24802 5.96511 8.56597 6.19953 8.80039C6.43395 9.03481 6.75189 9.1665 7.08341 9.1665ZM12.9167 9.1665C13.2483 9.1665 13.5662 9.03481 13.8006 8.80039C14.0351 8.56597 14.1667 8.24802 14.1667 7.9165C14.1667 7.58498 14.0351 7.26704 13.8006 7.03262C13.5662 6.7982 13.2483 6.6665 12.9167 6.6665C12.5852 6.6665 12.2673 6.7982 12.0329 7.03262C11.7984 7.26704 11.6667 7.58498 11.6667 7.9165C11.6667 8.24802 11.7984 8.56597 12.0329 8.80039C12.2673 9.03481 12.5852 9.1665 12.9167 9.1665ZM10.0001 16.6665C8.23197 16.6665 6.53628 15.9641 5.28604 14.7139C4.03579 13.4636 3.33341 11.7679 3.33341 9.99984C3.33341 8.23173 4.03579 6.53603 5.28604 5.28579C6.53628 4.03555 8.23197 3.33317 10.0001 3.33317C11.7682 3.33317 13.4639 4.03555 14.7141 5.28579C15.9644 6.53603 16.6667 8.23173 16.6667 9.99984C16.6667 11.7679 15.9644 13.4636 14.7141 14.7139C13.4639 15.9641 11.7682 16.6665 10.0001 16.6665ZM10.0001 1.6665C5.39175 1.6665 1.66675 5.4165 1.66675 9.99984C1.66675 12.21 2.54472 14.3296 4.10752 15.8924C4.88135 16.6662 5.80001 17.28 6.81105 17.6988C7.8221 18.1176 8.90573 18.3332 10.0001 18.3332C12.2102 18.3332 14.3298 17.4552 15.8926 15.8924C17.4554 14.3296 18.3334 12.21 18.3334 9.99984C18.3334 8.90549 18.1179 7.82185 17.6991 6.81081C17.2803 5.79976 16.6665 4.8811 15.8926 4.10728C15.1188 3.33346 14.2002 2.71963 13.1891 2.30084C12.1781 1.88205 11.0944 1.6665 10.0001 1.6665Z" fill="#1E1E1E"/>
</svg>
