<svg width="20" height="21" viewBox="0 0 20 21" fill="none" xmlns="http://www.w3.org/2000/svg">
<path d="M14.7085 5.31917C14.0917 4.69829 13.3581 4.2056 12.55 3.86949C11.7419 3.53339 10.8753 3.36052 10.0001 3.36084C6.3168 3.36084 3.3418 6.34417 3.3418 10.0275C3.3418 13.7108 6.3168 16.6942 10.0001 16.6942C13.1085 16.6942 15.7001 14.5692 16.4418 11.6942H14.7085C14.3652 12.6688 13.7279 13.5128 12.8846 14.1099C12.0413 14.7069 11.0334 15.0275 10.0001 15.0275C7.2418 15.0275 5.00013 12.7858 5.00013 10.0275C5.00013 7.26917 7.2418 5.02751 10.0001 5.02751C11.3835 5.02751 12.6168 5.60251 13.5168 6.51084L10.8335 9.19417H16.6668V3.36084L14.7085 5.31917Z" fill="#1E1E1E"/>
</svg>
